<svg width="14" height="14" viewBox="0 0 14 14" fill="none" xmlns="http://www.w3.org/2000/svg">
<path opacity="0.4" d="M9.54019 1.40036H4.9798C2.99891 1.40036 1.81799 2.58127 1.81799 4.56216V9.11712C1.81799 11.1034 2.99891 12.2844 4.9798 12.2844H9.53475C11.5156 12.2844 12.6966 11.1034 12.6966 9.12256V4.56216C12.702 2.58127 11.5211 1.40036 9.54019 1.40036Z" fill="#292D32"/>
<path d="M8.48991 6.84236L7.66817 6.55393V4.70909H7.86408C8.30488 4.70909 8.66405 5.09547 8.66405 5.56893C8.66405 5.79205 8.84908 5.97708 9.0722 5.97708C9.29533 5.97708 9.48035 5.79205 9.48035 5.56893C9.48035 4.64379 8.75657 3.89279 7.86408 3.89279H7.66817V3.57716C7.66817 3.35403 7.48314 3.16901 7.26002 3.16901C7.0369 3.16901 6.85187 3.35403 6.85187 3.57716V3.89279H6.49814C5.69272 3.89279 5.03424 4.57304 5.03424 5.40567C5.03424 6.37979 5.60021 6.68998 6.03013 6.84236L6.85187 7.13078V8.97018H6.65596C6.21516 8.97018 5.85598 8.5838 5.85598 8.11034C5.85598 7.88722 5.67095 7.70219 5.44783 7.70219C5.22471 7.70219 5.03968 7.88722 5.03968 8.11034C5.03968 9.03548 5.76347 9.78648 6.65596 9.78648H6.85187V10.1076C6.85187 10.3307 7.0369 10.5157 7.26002 10.5157C7.48314 10.5157 7.66817 10.3307 7.66817 10.1076V9.79192H8.0219C8.82731 9.79192 9.4858 9.11167 9.4858 8.27904C9.48035 7.29948 8.91439 6.98929 8.48991 6.84236ZM6.30223 6.07503C6.02468 5.97708 5.85598 5.88456 5.85598 5.41111C5.85598 5.02473 6.14441 4.71453 6.50358 4.71453H6.85731V6.27095L6.30223 6.07503ZM8.0219 8.97562H7.66817V7.41921L8.21781 7.60968C8.49535 7.70763 8.66405 7.80015 8.66405 8.2736C8.66405 8.65998 8.37563 8.97562 8.0219 8.97562Z" fill="#292D32"/>
</svg>
