<svg width="10" height="11" viewBox="0 0 10 11" fill="none" xmlns="http://www.w3.org/2000/svg">
<path d="M7.4316 8.76597C7.52847 8.63215 7.56829 8.46536 7.5423 8.30222C7.51632 8.13908 7.42665 7.99291 7.293 7.89581C7.28733 7.89156 6.86784 7.58035 6.25873 6.91144C7.38256 5.38994 8.01917 3.65899 8.27879 2.84439H9.19345C9.35883 2.84439 9.51743 2.7787 9.63437 2.66176C9.75131 2.54481 9.81701 2.38621 9.81701 2.22083C9.81701 2.05545 9.75131 1.89685 9.63437 1.7799C9.51743 1.66296 9.35883 1.59727 9.19345 1.59727H5.90557V1.03039C5.90557 0.865013 5.83987 0.706408 5.72293 0.589467C5.60599 0.472526 5.44739 0.40683 5.28201 0.40683C5.11663 0.40683 4.95802 0.472526 4.84108 0.589467C4.72414 0.706408 4.65845 0.865013 4.65845 1.03039V1.59727H1.37057C1.20519 1.59727 1.04659 1.66296 0.929646 1.7799C0.812706 1.89685 0.747009 2.05545 0.747009 2.22083C0.747009 2.38621 0.812706 2.54481 0.929646 2.66176C1.04659 2.7787 1.20519 2.84439 1.37057 2.84439H6.96138C6.69154 3.60826 6.19468 4.81428 5.43677 5.91572C4.54649 4.73435 4.21572 3.96992 4.21317 3.96369C4.14799 3.81306 4.02606 3.69421 3.87382 3.6329C3.72159 3.57159 3.55132 3.57277 3.39994 3.63619C3.24857 3.6996 3.1283 3.82013 3.06522 3.97165C3.00214 4.12316 3.00133 4.29343 3.06298 4.44553C3.07942 4.48464 3.47538 5.41574 4.56123 6.82442C4.5873 6.85815 4.6131 6.89103 4.63889 6.92391C3.52668 8.18095 2.43545 8.96069 1.97883 9.21238C1.83363 9.29158 1.72584 9.42521 1.67917 9.58387C1.6325 9.74254 1.65078 9.91325 1.72997 10.0584C1.80916 10.2036 1.94279 10.3114 2.10146 10.3581C2.26013 10.4048 2.43084 10.3865 2.57603 10.3073C2.63725 10.2739 3.95354 9.54514 5.45661 7.88136C6.09491 8.56388 6.53367 8.88586 6.56003 8.90457C6.62635 8.95274 6.70152 8.98737 6.78124 9.00646C6.86096 9.02555 6.94366 9.02874 7.02461 9.01584C7.10556 9.00294 7.18318 8.97421 7.25301 8.93128C7.32285 8.88836 7.38353 8.83209 7.4316 8.76569V8.76597Z" fill="#7E7E7E"/>
</svg>
