<svg width="14" height="14" viewBox="0 0 14 14" fill="none" xmlns="http://www.w3.org/2000/svg">
<path opacity="0.4" d="M11.951 4.78887C11.3796 2.27467 9.18644 1.14273 7.25997 1.14273C7.25997 1.14273 7.25997 1.14273 7.25453 1.14273C5.33351 1.14273 3.13494 2.26922 2.56353 4.78343C1.92681 7.5915 3.64649 9.96965 5.2029 11.4662C5.77975 12.0213 6.51986 12.2988 7.25997 12.2988C8.00009 12.2988 8.7402 12.0213 9.31161 11.4662C10.868 9.96965 12.5877 7.59694 11.951 4.78887Z" fill="#292D32"/>
<path d="M7.26001 7.51528C8.20675 7.51528 8.97424 6.7478 8.97424 5.80105C8.97424 4.85431 8.20675 4.08682 7.26001 4.08682C6.31326 4.08682 5.54578 4.85431 5.54578 5.80105C5.54578 6.7478 6.31326 7.51528 7.26001 7.51528Z" fill="#292D32"/>
</svg>
