<svg width="17" height="15" viewBox="0 0 17 15" fill="none" xmlns="http://www.w3.org/2000/svg">
<path d="M8.22488 7.88287C8.48798 7.88287 8.74517 7.79776 8.96393 7.6383C9.18269 7.47884 9.3532 7.2522 9.45388 6.98702C9.55457 6.72185 9.58091 6.43006 9.52958 6.14856C9.47825 5.86705 9.35156 5.60847 9.16552 5.40552C8.97947 5.20257 8.74244 5.06435 8.4844 5.00836C8.22635 4.95236 7.95888 4.9811 7.7158 5.09094C7.47273 5.20078 7.26497 5.38678 7.1188 5.62543C6.97263 5.86408 6.89461 6.14465 6.89461 6.43167C6.89461 6.81656 7.03476 7.18567 7.28424 7.45783C7.53371 7.72998 7.87207 7.88287 8.22488 7.88287ZM7.75263 12.8968C7.81446 12.9648 7.88803 13.0188 7.96908 13.0556C8.05013 13.0924 8.13707 13.1114 8.22488 13.1114C8.31268 13.1114 8.39962 13.0924 8.48067 13.0556C8.56172 13.0188 8.63529 12.9648 8.69712 12.8968L11.4175 9.92181C12.0494 9.23288 12.4797 8.35501 12.6542 7.39923C12.8286 6.44345 12.7393 5.4527 12.3976 4.55229C12.0558 3.65188 11.477 2.88226 10.7342 2.34078C9.99147 1.7993 9.11821 1.51028 8.22488 1.51028C7.33154 1.51028 6.45828 1.7993 5.71553 2.34078C4.97279 2.88226 4.39393 3.65188 4.05217 4.55229C3.71042 5.4527 3.62112 6.44345 3.79557 7.39923C3.97002 8.35501 4.40039 9.23288 5.03224 9.92181L7.75263 12.8968ZM5.05219 6.0979C5.09763 5.58056 5.24842 5.08082 5.49352 4.63517C5.73863 4.18952 6.07187 3.80922 6.46892 3.52202C6.99052 3.1484 7.60089 2.94934 8.22488 2.94934C8.84886 2.94934 9.45923 3.1484 9.98083 3.52202C10.3752 3.80823 10.7066 4.18623 10.9511 4.62884C11.1956 5.07144 11.3471 5.56765 11.3948 6.08178C11.4425 6.59591 11.3852 7.11518 11.227 7.60225C11.0687 8.08932 10.8135 8.53209 10.4797 8.89871L8.22488 11.3585L5.97007 8.89871C5.63586 8.53565 5.38005 8.09586 5.22127 7.61136C5.06249 7.12685 5.00473 6.60982 5.05219 6.0979Z" fill="#7E7E7E"/>
</svg>
