<svg width="23" height="22" viewBox="0 0 23 22" fill="none" xmlns="http://www.w3.org/2000/svg">
<path d="M18.9707 0.648895H3.73308C2.8671 0.648895 2.03658 0.992907 1.42424 1.60525C0.811891 2.21759 0.46788 3.04811 0.46788 3.9141V20.2401C0.468213 20.433 0.519785 20.6223 0.617318 20.7886C0.714851 20.955 0.854843 21.0925 1.02296 21.187C1.18563 21.2792 1.36931 21.3279 1.55628 21.3285C1.75163 21.3284 1.94336 21.2758 2.11136 21.1761L6.99828 18.2157C7.17892 18.1081 7.38683 18.0552 7.5969 18.0633H18.9707C19.8367 18.0633 20.6672 17.7193 21.2795 17.1069C21.8919 16.4946 22.2359 15.6641 22.2359 14.7981V3.9141C22.2359 3.04811 21.8919 2.21759 21.2795 1.60525C20.6672 0.992907 19.8367 0.648895 18.9707 0.648895ZM6.99828 10.4445C6.78302 10.4445 6.57258 10.3807 6.3936 10.2611C6.21461 10.1415 6.07511 9.97149 5.99273 9.77261C5.91035 9.57373 5.8888 9.35489 5.93079 9.14376C5.97279 8.93263 6.07645 8.7387 6.22867 8.58648C6.38088 8.43427 6.57482 8.3306 6.78594 8.28861C6.99707 8.24661 7.21591 8.26817 7.41479 8.35054C7.61367 8.43292 7.78366 8.57243 7.90325 8.75141C8.02285 8.9304 8.08668 9.14083 8.08668 9.3561C8.08668 9.64476 7.97201 9.9216 7.7679 10.1257C7.56378 10.3298 7.28694 10.4445 6.99828 10.4445ZM11.3519 10.4445C11.1366 10.4445 10.9262 10.3807 10.7472 10.2611C10.5682 10.1415 10.4287 9.97149 10.3463 9.77261C10.264 9.57373 10.2424 9.35489 10.2844 9.14376C10.3264 8.93263 10.43 8.7387 10.5823 8.58648C10.7345 8.43427 10.9284 8.3306 11.1395 8.28861C11.3507 8.24661 11.5695 8.26817 11.7684 8.35054C11.9673 8.43292 12.1373 8.57243 12.2569 8.75141C12.3764 8.9304 12.4403 9.14083 12.4403 9.3561C12.4403 9.64476 12.3256 9.9216 12.1215 10.1257C11.9174 10.3298 11.6405 10.4445 11.3519 10.4445ZM15.7055 10.4445C15.4902 10.4445 15.2798 10.3807 15.1008 10.2611C14.9218 10.1415 14.7823 9.97149 14.6999 9.77261C14.6176 9.57373 14.596 9.35489 14.638 9.14376C14.68 8.93263 14.7837 8.7387 14.9359 8.58648C15.0881 8.43427 15.282 8.3306 15.4931 8.28861C15.7043 8.24661 15.9231 8.26817 16.122 8.35054C16.3209 8.43292 16.4909 8.57243 16.6105 8.75141C16.73 8.9304 16.7939 9.14083 16.7939 9.3561C16.7939 9.64476 16.6792 9.9216 16.4751 10.1257C16.271 10.3298 15.9941 10.4445 15.7055 10.4445Z" fill="#7E7E7E"/>
</svg>
