<svg width="14" height="14" viewBox="0 0 14 14" fill="none" xmlns="http://www.w3.org/2000/svg">
<path opacity="0.4" d="M10.2695 4.7484C10.2314 4.74296 10.1933 4.74296 10.1552 4.7484C9.3117 4.72119 8.64233 4.03006 8.64233 3.18111C8.64233 2.31583 9.34435 1.60837 10.2151 1.60837C11.0803 1.60837 11.7878 2.31039 11.7878 3.18111C11.7824 4.03006 11.113 4.72119 10.2695 4.7484Z" fill="#292D32"/>
<path opacity="0.4" d="M12.0435 8.51971C11.434 8.92786 10.5796 9.08023 9.79052 8.97683C9.99731 8.53059 10.1062 8.03537 10.1116 7.51294C10.1116 6.96874 9.99187 6.45175 9.76331 6.00007C10.5687 5.89123 11.4231 6.04359 12.0381 6.45174C12.8979 7.01771 12.8979 7.9483 12.0435 8.51971Z" fill="#292D32"/>
<path opacity="0.4" d="M4.23432 4.7484C4.27241 4.74296 4.31051 4.74296 4.3486 4.7484C5.19211 4.72119 5.86148 4.03006 5.86148 3.18111C5.86148 2.31583 5.15946 1.60837 4.28874 1.60837C3.42346 1.60837 2.716 2.31039 2.716 3.18111C2.72145 4.03006 3.39081 4.72119 4.23432 4.7484Z" fill="#292D32"/>
<path opacity="0.4" d="M4.29408 7.51295C4.29408 8.04083 4.40836 8.54149 4.61515 8.99318C3.84783 9.07481 3.04786 8.91155 2.46012 8.52517C1.60029 7.95376 1.60029 7.02317 2.46012 6.45176C3.04242 6.05993 3.86416 5.90212 4.63692 5.98919C4.4138 6.44632 4.29408 6.96331 4.29408 7.51295Z" fill="#292D32"/>
<path d="M7.3253 9.15641C7.28177 9.15096 7.23279 9.15096 7.18381 9.15641C6.18248 9.12375 5.38251 8.30202 5.38251 7.2898C5.38251 6.25582 6.21513 5.41776 7.25456 5.41776C8.28854 5.41776 9.1266 6.25582 9.1266 7.2898C9.1266 8.30202 8.33207 9.12375 7.3253 9.15641Z" fill="#292D32"/>
<path d="M5.55668 10.2829C4.73493 10.8325 4.73493 11.7359 5.55668 12.2801C6.4927 12.9059 8.02734 12.9059 8.96337 12.2801C9.78511 11.7305 9.78511 10.8271 8.96337 10.2829C8.03279 9.65705 6.49814 9.65705 5.55668 10.2829Z" fill="#292D32"/>
</svg>
