<svg width="19" height="20" viewBox="0 0 19 20" fill="none" xmlns="http://www.w3.org/2000/svg">
<path d="M17.2964 19.2928C7.52452 19.3065 0.107683 11.8015 0.117992 2.11435C0.117992 1.48091 0.631157 0.965454 1.26345 0.965454H4.28746C4.85446 0.965454 5.3367 1.3824 5.42031 1.94368C5.61974 3.28965 6.01128 4.60004 6.58295 5.83479L6.70094 6.08909C6.78019 6.26021 6.79724 6.45362 6.74914 6.63596C6.70105 6.81831 6.59082 6.97815 6.43748 7.08793C5.5005 7.75687 5.14311 9.10279 5.87277 10.152C6.79141 11.4731 7.93797 12.6201 9.25874 13.5391C10.3091 14.2677 11.655 13.9103 12.3228 12.9744C12.4325 12.8206 12.5925 12.71 12.7751 12.6617C12.9577 12.6134 13.1514 12.6304 13.3228 12.7098L13.576 12.8267C14.8108 13.3994 16.1212 13.7911 17.4671 13.9905C18.0284 14.0741 18.4453 14.5563 18.4453 15.1245V18.1473C18.4453 18.2978 18.4156 18.4469 18.358 18.5859C18.3004 18.725 18.2159 18.8513 18.1094 18.9577C18.0029 19.0641 17.8765 19.1484 17.7374 19.2059C17.5983 19.2634 17.4492 19.2929 17.2987 19.2928H17.2964Z" fill="#7E7E7E"/>
</svg>
