<svg width="28" height="29" viewBox="0 0 28 29" fill="none" xmlns="http://www.w3.org/2000/svg">
<path d="M11.664 24.0962C14.2399 24.0957 16.7415 23.2334 18.7706 21.6466L25.15 28.0261L27.202 25.9741L20.8226 19.5946C22.4102 17.5653 23.273 15.0631 23.2736 12.4866C23.2736 6.08537 18.0653 0.877014 11.664 0.877014C5.2628 0.877014 0.0544434 6.08537 0.0544434 12.4866C0.0544434 18.8879 5.2628 24.0962 11.664 24.0962ZM11.664 3.77941C16.4661 3.77941 20.3712 7.68459 20.3712 12.4866C20.3712 17.2886 16.4661 21.1938 11.664 21.1938C6.86202 21.1938 2.95684 17.2886 2.95684 12.4866C2.95684 7.68459 6.86202 3.77941 11.664 3.77941Z" fill="black"/>
</svg>
