<svg width="24" height="17" viewBox="0 0 24 17" fill="none" xmlns="http://www.w3.org/2000/svg">
<path d="M20.3372 4.17988C20.3372 6.46507 18.6133 8.18898 16.3281 8.18898C14.0429 8.18898 12.319 6.46507 12.319 4.17988C12.319 1.89469 14.0429 0.170776 16.3281 0.170776C18.6133 0.170776 20.3372 1.89469 20.3372 4.17988ZM3.72806 3.54759H6.01897V6.98396H9.45535V9.27487H6.01897V12.7112H3.72806V9.27487H0.291687V6.98396H3.72806V3.54759ZM20.9099 16.1476H9.45535V15.0022C9.45535 11.8441 12.0246 9.27487 15.1826 9.27487H17.4735C20.6316 9.27487 23.2008 11.8441 23.2008 15.0022V16.1476H20.9099Z" fill="#2F80ED"/>
</svg>
